<?xml version="1.0" encoding="UTF-8"?>
<svg id="Layer_2" data-name="Layer 2" xmlns="http://www.w3.org/2000/svg" viewBox="0 0 432 285.62">
  <defs>
    <style>
      .cls-1 {
        fill: #231f20;
        stroke-width: 0px;
      }
    </style>
  </defs>
  <g id="Layer_1-2" data-name="Layer 1">
    <g>
      <path class="cls-1" d="M36.14,59.82c8.85-4.98,3.93-28.12-7.65-9.49-2.63,4.24.22,13.67,7.65,9.49Z"/>
      <path class="cls-1" d="M154.33,74.64c-6.8,12.53-18.2,20.78-23.38,35.29-7.91,22.15,8.37,41.23,30.23,33.19,30.96-16.2,11.52-78.64,5.2-105.48-2.49-7.37-.98-19.07,9.27-17.1,29.24,7.94,58.26,31.99,60.63,63.87.6,9.51-4.78,18.88-13.18,23.32-9.72,5.63-20.01.95-29.93-1.11-21.23.83-8.49,27.9,12.23,25.09,21.08-1.87,36.1-21.02,38.24-41.85,1.25-12.18-4.12-24.57-9.55-34.16-11.36-17.42-27.14-33.5-45.43-43.85-13.21-6.2-28.76-8.48-33.5,10.2-1.69,6.65-1.3,11.28-.45,19.05,1.21,11.07,5.34,23.05-.39,33.55Z"/>
      <path class="cls-1" d="M49.94,140.78c7.81,10.12,21.08,10.05,27.48-.37,11.86-19.3-19.83-31.95-20.82-54.31-.64-16.55,1.13-25.73,4.05-41.95,2.87-15.98,11.76-10.98,10.7,2.89-1.55,20.32,1.44,40.42,11.17,58.77,13.96,25.93,24.04,27.81,38.29,5.45,9.11-14.3,15.33-27.19,19.31-43.52,4.05-16.63,2.1-39.22-16.03-46.32-12.8-5.01-24.95,6.46-25.55,19.25-.87,18.51,13.02,23.72,13,40.19-.02,25.41-9.35,54.81-26.31,15.07-7.04-16.61-9.82-34.02-8.39-52.07,1.73-31.24-16.32-43.95-21.41-4.92-2.6,19.96-7.77,32.6-13.24,52.48-4.96,16.11-3.27,35.08,7.74,49.35Z"/>
      <path class="cls-1" d="M248.26,18.82c27.39,7.65,25.09-18.97.85-18.8-8.94-.54-22.67,8.35-17.49,18.17,4.94,3.25,11.15-.72,16.64.63Z"/>
      <path class="cls-1" d="M267.03,37.61c.48-8.38-6.75-14.71-14.91-14.37,0,.06-.01.11-.02.17-17.37-.59-15.25,20.43-8.82,31.03,4.53,10.4,9.6,20.91,9.77,32.48,1.98,11.52-3.11,22.12-4.61,33.3-.87,22.68,28.16,12.47,19.97-15.83-1.42-13.15-8.67-24.99-9.55-38.09.6-10.13,8.37-18.35,8.16-28.69Z"/>
      <path class="cls-1" d="M318.94,134.23c26.23-4.24,43.58-40.69,22.25-59.68-15.2-13.53-40.52,2.99-37.44,22.58,1.67,17.08,25.41,17.05,27.97.56,1.18-7.58-4.77-13.13-4.84-20.21.8-6.58,9.44-4.47,12.66-.87,12.28,12.66,7.21,35.49-5.39,46.14-29.93,21.87-45.18-9.98-44.9-36.95.09-9.15,1.38-18.91,6.85-26.52,2.51-3.89,10.42-8.57,12.51-1.96,4.61,14.56,24.36,9.81,32.5-1.77,8.68-12.34,3.86-25.26-6.42-33.06-11.21-8.5-26.51-5.31-36.41,2.76-20.23,16.8-27.89,45.55-24.11,71.15,3.3,22.41,21.01,41.68,44.77,37.84Z"/>
      <path class="cls-1" d="M373.53,140.8c48.14-2.78,55.16-65.75,36.1-100.27-22.71-39.18-66.06-20.59-54.24,22.54,3.61,12.02,4.62,24.93,1.37,37.17-6.05,17.8-8.33,40.02,16.77,40.56ZM367.44,30.16c10.71-1.82,7.24,13.22,20.29,18.15,11.65,4.4,18.19,18.4,17.04,32.09s-2.05,27.73-11.98,36.77c-8.61,9.14-27.59,10.94-29.74-4.58.31-13.73,9.71-24.47,4.65-40.12-4.13-12.78-17.5-39.38-.25-42.32Z"/>
      <path class="cls-1" d="M273.49,155.57c-16.23-11.26-34.36,7.03-32.51,24.05,4.43,24.04,25.61,35.65,15.42,63.41-4.14,14.72-20.66,19.08-26.44,1.85-2.86-10.82-.64-17.23-.93-28.29-.4-12.37-9.53-23.91-15.72-34.51-3.59-4.35-11.16-21.01-1.78-21.74,3.41,2.11,2.97,7.24,6.69,9.2,5.04,3.6,10.44-2.58,10.93-7.5,2.49-15.8-18.11-32.1-30.77-18.61-13.1,14.41-1.63,34.69,8.72,47.14,7.7,12.28,13.1,26.39,12.03,41.09-1.06,32.47,24.14,43.49,46.59,19.67,19.66-20.05,36.5-77.55,7.76-95.77Z"/>
      <path class="cls-1" d="M393.23,223.72c9.43-30.92-34.3-18.5-30.46,5.89,3.21,25.22-28.84,42.29-49.51,27.39-19.26-13.88-6.37-38.4,14.11-43.53,2.23-.7,11.66-1.26,9.84-8.49-1.52-6.05-18.28,1.1-24.74-1.29-10.56-3.91-12.27-12.85-10.51-21.12,5.37-15.68,17.89-32.55,35.3-36.63,4-.94,6.7,3.12,5.62,7.97-3.32,14.9-20.16,19.91-27,32.29-1.91,3.73-2.02,7.55-.13,11.3,14.61,15.07,32.53-20.07,34.66-32.59,2.62-15.47-7.91-29.72-22.76-21.74-17.45,9.05-34.9,27.64-33.05,48.32.57,6.72,6.37,11.78,9.57,17.08,1.87,3.96-2.24,6.26-5.13,12.23-5.47,11.31-5.27,23.86,2.24,34.56,13.68,18.64,41.81,14.19,59.07,3.17,12.7-9.13,27.79-18.06,32.89-34.81Z"/>
      <path class="cls-1" d="M35.44,138.47c-1.48-6.01-3.18-11.86-5.98-21.01-4.24-13.83,12.35-38,3.07-41.17-7.89-2.7-7.86,15.97-10.4,23.42-3.73,10.97-8.36,19.45-11.61,30.61-11.15,31.95,31.39,39.29,24.92,8.15Z"/>
      <path class="cls-1" d="M431.98,222.37c.18-13.62-4.36-31.61-19.33-35.26-14.89-3.63-28.86,3.78-43.27,4.87-17.38-3.77,1.79-34.35,12.96-37.82,19.3-5.99-.58,11.76-.24,19.74.49,11.72,16.42,7.28,21.27,1.13,33.36-42.28-41.47-39.58-45.29,5.27-1.06,12.46,4.92,20.88,18.47,17.06,10.2-2.88,25.49-10.6,34.71-4.24,14.27,9.84,8.1,30.28-.84,41.04-9.13,11-22.78,14.78-34.28,22.11-16.18,10.32-15.41,27.29,4.91,28.22,31.67,1.45,51.66-32.91,50.92-62.12Z"/>
      <path class="cls-1" d="M165.46,153.78c-28.4-2.09-50.43,43.97-44.13,68.28,2.9,17.06,26.14,26.48,33.27,7.03,3.02-12.06-2.05-24.4-1.19-36.52,9.58-34.08,44.52-1.95,20.37,29.32-7.17,9.71-15.76,19.28-16.41,32.17-.95,18.85,15.29,33.13,31.88,31.42,48.06-.75,18.3-59.36,8.03-84.19-7.66-16.56-9.45-45.09-31.81-47.52ZM175.01,175.86c-6.45,0-14.95-6.72-15.51-12.23.24-3.57,2.05-5.38,5.36-5.38,3.82,0,8.94,2.48,12.45,6.02,2.2,2.23,3.42,4.54,3.43,6.53-.62,3.35-2.55,5.06-5.73,5.06Z"/>
      <path class="cls-1" d="M86.76,153.6c-16.35-3.49-31.44,12.62-24.72,28.46,12.66,26.24,41.36,52.15,11.89,79.86-9.81,7.51-22.77-.77-27.05-10.65-6.79-13.7-5.95-29.97.24-43.72,4.41-11.87-4.15-6.21-7.87-.25-17.71,24.54-43.33,9.39-18.75-10.12,49.12-28.55-9.03-41.41-19.96,5.49-2.59,13.28,4.04,29.24,19.94,25.21,3.91.05,10.23-5.6,12.79-1.33,16.08,93.36,81.75,28.59,82.4-31.14.39-18.13-9.75-38.33-28.91-41.79Z"/>
    </g>
  </g>
</svg>